<svg xmlns="http://www.w3.org/2000/svg" xmlns:xlink="http://www.w3.org/1999/xlink" version="1.1" x="0px" y="0px" viewBox="0 0 170.1 170.1" enable-background="new 0 0 170.1 170.1" xml:space="preserve"><g><path d="M134.6,88.1c-6.3,0-12,2-16.8,5.4V73.7H10.1V147c0,12.2,9.9,22,22,22h63.6c12.2,0,22-9.9,22-22v-6.3   c4.7,3.4,10.5,5.4,16.8,5.4c16,0,29-13,29-29C163.6,101.1,150.6,88.1,134.6,88.1z M134.6,133.3c-8.9,0-16.1-7.2-16.1-16.1   c0-8.9,7.2-16.1,16.1-16.1c8.9,0,16.1,7.2,16.1,16.1C150.7,126,143.5,133.3,134.6,133.3z"></path><path d="M35.2,58.3c-0.4-10,3.5-15.5,6.6-20c2.2-3.2,3.5-5.1,3.6-7.9c0.2-3.8-2.5-8.7-5.2-13.5c-3-5.4-6.1-11-6.1-16.8h11   c0,2.9,2.4,7.3,4.7,11.4c3.2,5.9,6.9,12.5,6.6,19.5C56.1,37,53.3,41,50.9,44.6c-2.6,3.8-4.9,7-4.6,13.3L35.2,58.3z"></path><path d="M55.6,58.3c-0.4-10,3.5-15.5,6.6-20c2.2-3.2,3.5-5.1,3.6-7.9c0.2-3.8-2.5-8.7-5.2-13.5c-3-5.4-6.1-11-6.1-16.8h11   c0,2.9,2.4,7.3,4.7,11.4c3.2,5.9,6.9,12.5,6.6,19.5C76.5,37,73.7,41,71.2,44.6c-2.6,3.8-4.9,7-4.6,13.3L55.6,58.3z"></path><path d="M77.3,58.3c-0.4-10,3.5-15.5,6.6-20c2.2-3.2,3.5-5.1,3.6-7.9c0.2-3.8-2.5-8.7-5.2-13.5c-3-5.4-6.1-11-6.1-16.8h11   c0,2.9,2.4,7.3,4.7,11.4c3.2,5.9,6.9,12.5,6.6,19.5C98.2,37,95.4,41,92.9,44.6c-2.6,3.8-4.9,7-4.6,13.3L77.3,58.3z"></path></g></svg>